<mxfile host="Electron" modified="2024-05-20T23:51:23.124Z" agent="Mozilla/5.0 (Windows NT 10.0; Win64; x64) AppleWebKit/537.36 (KHTML, like Gecko) draw.io/22.1.2 Chrome/114.0.5735.289 Electron/25.9.4 Safari/537.36" etag="dqlySDbOOqO0gfw0sxod" version="22.1.2" type="device" pages="3">
  <diagram name="sketches" id="rUDSr9jZOlhnyCmVF_k-">
    <mxGraphModel dx="1098" dy="699" grid="1" gridSize="10" guides="1" tooltips="1" connect="1" arrows="1" fold="1" page="1" pageScale="1" pageWidth="1169" pageHeight="827" math="0" shadow="0">
      <root>
        <mxCell id="0" />
        <mxCell id="1" parent="0" />
        <mxCell id="qKefjguTeevoIXmkZgeL-3" value="organisation types" style="shape=table;startSize=30;container=1;collapsible=1;childLayout=tableLayout;fixedRows=1;rowLines=0;fontStyle=1;align=center;resizeLast=1;html=1;rounded=1;fontFamily=Comic Sans MS;fontSize=9;strokeColor=none;fillColor=#994C00;gradientColor=none;swimlaneLine=1;shadow=0;strokeWidth=0.5;sketch=1;curveFitting=1;jiggle=2;arcSize=23;opacity=45;" parent="1" vertex="1">
          <mxGeometry x="120" y="167" width="170" height="90" as="geometry" />
        </mxCell>
        <mxCell id="qKefjguTeevoIXmkZgeL-4" value="" style="shape=tableRow;horizontal=0;startSize=0;swimlaneHead=0;swimlaneBody=0;fillColor=#994C00;collapsible=0;dropTarget=0;points=[[0,0.5],[1,0.5]];portConstraint=eastwest;top=0;left=0;right=0;bottom=1;fontFamily=Comic Sans MS;fontSize=9;strokeColor=inherit;gradientColor=none;swimlaneLine=1;shadow=0;strokeWidth=0.5;sketch=1;curveFitting=1;jiggle=2;opacity=25;" parent="qKefjguTeevoIXmkZgeL-3" vertex="1">
          <mxGeometry y="30" width="170" height="30" as="geometry" />
        </mxCell>
        <mxCell id="qKefjguTeevoIXmkZgeL-5" value="PK" style="shape=partialRectangle;connectable=0;fillColor=#994C00;top=0;left=0;bottom=0;right=0;fontStyle=1;overflow=hidden;whiteSpace=wrap;html=1;fontFamily=Comic Sans MS;fontSize=9;strokeColor=inherit;gradientColor=none;swimlaneLine=1;shadow=0;strokeWidth=0.5;sketch=1;curveFitting=1;jiggle=2;opacity=25;" parent="qKefjguTeevoIXmkZgeL-4" vertex="1">
          <mxGeometry width="30" height="30" as="geometry">
            <mxRectangle width="30" height="30" as="alternateBounds" />
          </mxGeometry>
        </mxCell>
        <mxCell id="qKefjguTeevoIXmkZgeL-6" value="&lt;p&gt;&lt;font face=&quot;Comic Sans MS&quot;&gt;organisation_type_id, integer&lt;/font&gt;&lt;/p&gt;" style="shape=partialRectangle;connectable=0;fillColor=#994C00;top=0;left=0;bottom=0;right=0;align=left;spacingLeft=6;fontStyle=1;overflow=hidden;whiteSpace=wrap;html=1;fontFamily=Comic Sans MS;fontSize=9;strokeColor=inherit;gradientColor=none;swimlaneLine=1;shadow=0;strokeWidth=0.5;sketch=1;curveFitting=1;jiggle=2;opacity=25;" parent="qKefjguTeevoIXmkZgeL-4" vertex="1">
          <mxGeometry x="30" width="140" height="30" as="geometry">
            <mxRectangle width="140" height="30" as="alternateBounds" />
          </mxGeometry>
        </mxCell>
        <mxCell id="qKefjguTeevoIXmkZgeL-7" value="" style="shape=tableRow;horizontal=0;startSize=0;swimlaneHead=0;swimlaneBody=0;fillColor=#994C00;collapsible=0;dropTarget=0;points=[[0,0.5],[1,0.5]];portConstraint=eastwest;top=0;left=0;right=0;bottom=0;fontFamily=Comic Sans MS;fontSize=9;strokeColor=inherit;gradientColor=none;swimlaneLine=1;shadow=0;strokeWidth=0.5;sketch=1;curveFitting=1;jiggle=2;opacity=25;" parent="qKefjguTeevoIXmkZgeL-3" vertex="1">
          <mxGeometry y="60" width="170" height="30" as="geometry" />
        </mxCell>
        <mxCell id="qKefjguTeevoIXmkZgeL-8" value="" style="shape=partialRectangle;connectable=0;fillColor=#994C00;top=0;left=0;bottom=0;right=0;editable=1;overflow=hidden;whiteSpace=wrap;html=1;fontFamily=Comic Sans MS;fontSize=9;strokeColor=inherit;gradientColor=none;swimlaneLine=1;shadow=0;strokeWidth=0.5;sketch=1;curveFitting=1;jiggle=2;opacity=25;" parent="qKefjguTeevoIXmkZgeL-7" vertex="1">
          <mxGeometry width="30" height="30" as="geometry">
            <mxRectangle width="30" height="30" as="alternateBounds" />
          </mxGeometry>
        </mxCell>
        <mxCell id="qKefjguTeevoIXmkZgeL-9" value="organisation_type, string" style="shape=partialRectangle;connectable=0;fillColor=#994C00;top=0;left=0;bottom=0;right=0;align=left;spacingLeft=6;overflow=hidden;whiteSpace=wrap;html=1;fontFamily=Comic Sans MS;fontSize=9;strokeColor=inherit;gradientColor=none;swimlaneLine=1;shadow=0;strokeWidth=0.5;sketch=1;curveFitting=1;jiggle=2;opacity=25;" parent="qKefjguTeevoIXmkZgeL-7" vertex="1">
          <mxGeometry x="30" width="140" height="30" as="geometry">
            <mxRectangle width="140" height="30" as="alternateBounds" />
          </mxGeometry>
        </mxCell>
        <mxCell id="qKefjguTeevoIXmkZgeL-30" value="organisations" style="shape=table;startSize=30;container=1;collapsible=1;childLayout=tableLayout;fixedRows=1;rowLines=0;fontStyle=1;align=center;resizeLast=1;html=1;rounded=1;fontFamily=Comic Sans MS;fontSize=9;strokeColor=none;fillColor=#994C00;gradientColor=none;swimlaneLine=1;shadow=0;strokeWidth=0.5;sketch=1;curveFitting=1;jiggle=2;arcSize=24;opacity=45;" parent="1" vertex="1">
          <mxGeometry x="388" y="250" width="172" height="120" as="geometry" />
        </mxCell>
        <mxCell id="qKefjguTeevoIXmkZgeL-31" value="" style="shape=tableRow;horizontal=0;startSize=0;swimlaneHead=0;swimlaneBody=0;fillColor=#994C00;collapsible=0;dropTarget=0;points=[[0,0.5],[1,0.5]];portConstraint=eastwest;top=0;left=0;right=0;bottom=1;fontFamily=Comic Sans MS;fontSize=9;strokeColor=inherit;gradientColor=none;swimlaneLine=1;shadow=0;strokeWidth=0.5;sketch=1;curveFitting=1;jiggle=2;opacity=25;" parent="qKefjguTeevoIXmkZgeL-30" vertex="1">
          <mxGeometry y="30" width="172" height="30" as="geometry" />
        </mxCell>
        <mxCell id="qKefjguTeevoIXmkZgeL-32" value="PK" style="shape=partialRectangle;connectable=0;fillColor=#994C00;top=0;left=0;bottom=0;right=0;fontStyle=1;overflow=hidden;whiteSpace=wrap;html=1;fontFamily=Comic Sans MS;fontSize=9;strokeColor=inherit;gradientColor=none;swimlaneLine=1;shadow=0;strokeWidth=0.5;sketch=1;curveFitting=1;jiggle=2;opacity=25;" parent="qKefjguTeevoIXmkZgeL-31" vertex="1">
          <mxGeometry width="30" height="30" as="geometry">
            <mxRectangle width="30" height="30" as="alternateBounds" />
          </mxGeometry>
        </mxCell>
        <mxCell id="qKefjguTeevoIXmkZgeL-33" value="&lt;p&gt;&lt;font face=&quot;Comic Sans MS&quot;&gt;organisation_id, integer&lt;/font&gt;&lt;/p&gt;" style="shape=partialRectangle;connectable=0;fillColor=#994C00;top=0;left=0;bottom=0;right=0;align=left;spacingLeft=6;fontStyle=1;overflow=hidden;whiteSpace=wrap;html=1;fontFamily=Comic Sans MS;fontSize=9;strokeColor=inherit;gradientColor=none;swimlaneLine=1;shadow=0;strokeWidth=0.5;sketch=1;curveFitting=1;jiggle=2;opacity=25;" parent="qKefjguTeevoIXmkZgeL-31" vertex="1">
          <mxGeometry x="30" width="142" height="30" as="geometry">
            <mxRectangle width="142" height="30" as="alternateBounds" />
          </mxGeometry>
        </mxCell>
        <mxCell id="qKefjguTeevoIXmkZgeL-34" value="" style="shape=tableRow;horizontal=0;startSize=0;swimlaneHead=0;swimlaneBody=0;fillColor=#994C00;collapsible=0;dropTarget=0;points=[[0,0.5],[1,0.5]];portConstraint=eastwest;top=0;left=0;right=0;bottom=0;fontFamily=Comic Sans MS;fontSize=9;strokeColor=inherit;gradientColor=none;swimlaneLine=1;shadow=0;strokeWidth=0.5;sketch=1;curveFitting=1;jiggle=2;opacity=25;" parent="qKefjguTeevoIXmkZgeL-30" vertex="1">
          <mxGeometry y="60" width="172" height="30" as="geometry" />
        </mxCell>
        <mxCell id="qKefjguTeevoIXmkZgeL-35" value="FK" style="shape=partialRectangle;connectable=0;fillColor=#994C00;top=0;left=0;bottom=0;right=0;editable=1;overflow=hidden;whiteSpace=wrap;html=1;fontFamily=Comic Sans MS;fontSize=9;strokeColor=inherit;gradientColor=none;swimlaneLine=1;shadow=0;strokeWidth=0.5;sketch=1;curveFitting=1;jiggle=2;opacity=25;" parent="qKefjguTeevoIXmkZgeL-34" vertex="1">
          <mxGeometry width="30" height="30" as="geometry">
            <mxRectangle width="30" height="30" as="alternateBounds" />
          </mxGeometry>
        </mxCell>
        <mxCell id="qKefjguTeevoIXmkZgeL-36" value="organisation_type_id, integer" style="shape=partialRectangle;connectable=0;fillColor=#994C00;top=0;left=0;bottom=0;right=0;align=left;spacingLeft=6;overflow=hidden;whiteSpace=wrap;html=1;fontFamily=Comic Sans MS;fontSize=9;strokeColor=inherit;gradientColor=none;swimlaneLine=1;shadow=0;strokeWidth=0.5;sketch=1;curveFitting=1;jiggle=2;opacity=25;" parent="qKefjguTeevoIXmkZgeL-34" vertex="1">
          <mxGeometry x="30" width="142" height="30" as="geometry">
            <mxRectangle width="142" height="30" as="alternateBounds" />
          </mxGeometry>
        </mxCell>
        <mxCell id="qKefjguTeevoIXmkZgeL-37" value="" style="shape=tableRow;horizontal=0;startSize=0;swimlaneHead=0;swimlaneBody=0;fillColor=#994C00;collapsible=0;dropTarget=0;points=[[0,0.5],[1,0.5]];portConstraint=eastwest;top=0;left=0;right=0;bottom=0;fontFamily=Comic Sans MS;fontSize=9;strokeColor=inherit;gradientColor=none;swimlaneLine=1;shadow=0;strokeWidth=0.5;sketch=1;curveFitting=1;jiggle=2;opacity=25;" parent="qKefjguTeevoIXmkZgeL-30" vertex="1">
          <mxGeometry y="90" width="172" height="30" as="geometry" />
        </mxCell>
        <mxCell id="qKefjguTeevoIXmkZgeL-38" value="" style="shape=partialRectangle;connectable=0;fillColor=#994C00;top=0;left=0;bottom=0;right=0;editable=1;overflow=hidden;whiteSpace=wrap;html=1;fontFamily=Comic Sans MS;fontSize=9;strokeColor=inherit;gradientColor=none;swimlaneLine=1;shadow=0;strokeWidth=0.5;sketch=1;curveFitting=1;jiggle=2;opacity=25;" parent="qKefjguTeevoIXmkZgeL-37" vertex="1">
          <mxGeometry width="30" height="30" as="geometry">
            <mxRectangle width="30" height="30" as="alternateBounds" />
          </mxGeometry>
        </mxCell>
        <mxCell id="qKefjguTeevoIXmkZgeL-39" value="organisation_name, string" style="shape=partialRectangle;connectable=0;fillColor=#994C00;top=0;left=0;bottom=0;right=0;align=left;spacingLeft=6;overflow=hidden;whiteSpace=wrap;html=1;fontFamily=Comic Sans MS;fontSize=9;strokeColor=inherit;gradientColor=none;swimlaneLine=1;shadow=0;strokeWidth=0.5;sketch=1;curveFitting=1;jiggle=2;opacity=25;" parent="qKefjguTeevoIXmkZgeL-37" vertex="1">
          <mxGeometry x="30" width="142" height="30" as="geometry">
            <mxRectangle width="142" height="30" as="alternateBounds" />
          </mxGeometry>
        </mxCell>
        <mxCell id="qKefjguTeevoIXmkZgeL-40" value="documents" style="shape=table;startSize=30;container=1;collapsible=1;childLayout=tableLayout;fixedRows=1;rowLines=0;fontStyle=1;align=center;resizeLast=1;html=1;rounded=1;fontFamily=Comic Sans MS;fontSize=9;strokeColor=none;fillColor=#994C00;gradientColor=none;swimlaneLine=1;shadow=0;strokeWidth=0.5;arcSize=24;sketch=1;curveFitting=1;jiggle=2;opacity=45;" parent="1" vertex="1">
          <mxGeometry x="658" y="330" width="180" height="120" as="geometry" />
        </mxCell>
        <mxCell id="qKefjguTeevoIXmkZgeL-41" value="" style="shape=tableRow;horizontal=0;startSize=0;swimlaneHead=0;swimlaneBody=0;fillColor=#994C00;collapsible=0;dropTarget=0;points=[[0,0.5],[1,0.5]];portConstraint=eastwest;top=0;left=0;right=0;bottom=1;fontFamily=Comic Sans MS;fontSize=9;strokeColor=#994C00;gradientColor=none;swimlaneLine=1;shadow=0;strokeWidth=0.5;sketch=1;curveFitting=1;jiggle=2;opacity=25;" parent="qKefjguTeevoIXmkZgeL-40" vertex="1">
          <mxGeometry y="30" width="180" height="30" as="geometry" />
        </mxCell>
        <mxCell id="qKefjguTeevoIXmkZgeL-42" value="PK" style="shape=partialRectangle;connectable=0;fillColor=#994C00;top=0;left=0;bottom=0;right=0;fontStyle=1;overflow=hidden;whiteSpace=wrap;html=1;fontFamily=Comic Sans MS;fontSize=9;strokeColor=#994C00;gradientColor=none;swimlaneLine=1;shadow=0;strokeWidth=0.5;sketch=1;curveFitting=1;jiggle=2;opacity=25;" parent="qKefjguTeevoIXmkZgeL-41" vertex="1">
          <mxGeometry width="30" height="30" as="geometry">
            <mxRectangle width="30" height="30" as="alternateBounds" />
          </mxGeometry>
        </mxCell>
        <mxCell id="qKefjguTeevoIXmkZgeL-43" value="&lt;p&gt;&lt;font face=&quot;Comic Sans MS&quot;&gt;document_id, integer&lt;/font&gt;&lt;/p&gt;" style="shape=partialRectangle;connectable=0;fillColor=#994C00;top=0;left=0;bottom=0;right=0;align=left;spacingLeft=6;fontStyle=1;overflow=hidden;whiteSpace=wrap;html=1;fontFamily=Comic Sans MS;fontSize=9;strokeColor=#994C00;gradientColor=none;swimlaneLine=1;shadow=0;strokeWidth=0.5;sketch=1;curveFitting=1;jiggle=2;opacity=25;" parent="qKefjguTeevoIXmkZgeL-41" vertex="1">
          <mxGeometry x="30" width="150" height="30" as="geometry">
            <mxRectangle width="150" height="30" as="alternateBounds" />
          </mxGeometry>
        </mxCell>
        <mxCell id="qKefjguTeevoIXmkZgeL-44" value="" style="shape=tableRow;horizontal=0;startSize=0;swimlaneHead=0;swimlaneBody=0;fillColor=#994C00;collapsible=0;dropTarget=0;points=[[0,0.5],[1,0.5]];portConstraint=eastwest;top=0;left=0;right=0;bottom=0;fontFamily=Comic Sans MS;fontSize=9;strokeColor=#994C00;gradientColor=none;swimlaneLine=1;shadow=0;strokeWidth=0.5;sketch=1;curveFitting=1;jiggle=2;opacity=25;" parent="qKefjguTeevoIXmkZgeL-40" vertex="1">
          <mxGeometry y="60" width="180" height="30" as="geometry" />
        </mxCell>
        <mxCell id="qKefjguTeevoIXmkZgeL-45" value="FK" style="shape=partialRectangle;connectable=0;fillColor=#994C00;top=0;left=0;bottom=0;right=0;editable=1;overflow=hidden;whiteSpace=wrap;html=1;fontFamily=Comic Sans MS;fontSize=9;strokeColor=#994C00;gradientColor=none;swimlaneLine=1;shadow=0;strokeWidth=0.5;sketch=1;curveFitting=1;jiggle=2;opacity=25;" parent="qKefjguTeevoIXmkZgeL-44" vertex="1">
          <mxGeometry width="30" height="30" as="geometry">
            <mxRectangle width="30" height="30" as="alternateBounds" />
          </mxGeometry>
        </mxCell>
        <mxCell id="qKefjguTeevoIXmkZgeL-46" value="organisation_id, integer" style="shape=partialRectangle;connectable=0;fillColor=#994C00;top=0;left=0;bottom=0;right=0;align=left;spacingLeft=6;overflow=hidden;whiteSpace=wrap;html=1;fontFamily=Comic Sans MS;fontSize=9;strokeColor=#994C00;gradientColor=none;swimlaneLine=1;shadow=0;strokeWidth=0.5;sketch=1;curveFitting=1;jiggle=2;opacity=25;" parent="qKefjguTeevoIXmkZgeL-44" vertex="1">
          <mxGeometry x="30" width="150" height="30" as="geometry">
            <mxRectangle width="150" height="30" as="alternateBounds" />
          </mxGeometry>
        </mxCell>
        <mxCell id="qKefjguTeevoIXmkZgeL-47" value="" style="shape=tableRow;horizontal=0;startSize=0;swimlaneHead=0;swimlaneBody=0;fillColor=#994C00;collapsible=0;dropTarget=0;points=[[0,0.5],[1,0.5]];portConstraint=eastwest;top=0;left=0;right=0;bottom=0;fontFamily=Comic Sans MS;fontSize=9;strokeColor=#994C00;gradientColor=none;swimlaneLine=1;shadow=0;strokeWidth=0.5;sketch=1;curveFitting=1;jiggle=2;opacity=25;" parent="qKefjguTeevoIXmkZgeL-40" vertex="1">
          <mxGeometry y="90" width="180" height="30" as="geometry" />
        </mxCell>
        <mxCell id="qKefjguTeevoIXmkZgeL-48" value="" style="shape=partialRectangle;connectable=0;fillColor=#994C00;top=0;left=0;bottom=0;right=0;editable=1;overflow=hidden;whiteSpace=wrap;html=1;fontFamily=Comic Sans MS;fontSize=9;strokeColor=#994C00;gradientColor=none;swimlaneLine=1;shadow=0;strokeWidth=0.5;sketch=1;curveFitting=1;jiggle=2;opacity=25;" parent="qKefjguTeevoIXmkZgeL-47" vertex="1">
          <mxGeometry width="30" height="30" as="geometry">
            <mxRectangle width="30" height="30" as="alternateBounds" />
          </mxGeometry>
        </mxCell>
        <mxCell id="qKefjguTeevoIXmkZgeL-49" value="starting_year, integer" style="shape=partialRectangle;connectable=0;fillColor=#994C00;top=0;left=0;bottom=0;right=0;align=left;spacingLeft=6;overflow=hidden;whiteSpace=wrap;html=1;fontFamily=Comic Sans MS;fontSize=9;strokeColor=#994C00;gradientColor=none;swimlaneLine=1;shadow=0;strokeWidth=0.5;sketch=1;curveFitting=1;jiggle=2;opacity=25;" parent="qKefjguTeevoIXmkZgeL-47" vertex="1">
          <mxGeometry x="30" width="150" height="30" as="geometry">
            <mxRectangle width="150" height="30" as="alternateBounds" />
          </mxGeometry>
        </mxCell>
        <mxCell id="qKefjguTeevoIXmkZgeL-50" value="" style="edgeStyle=entityRelationEdgeStyle;fontSize=12;html=1;endArrow=ERoneToMany;rounded=1;entryX=0;entryY=0.5;entryDx=0;entryDy=0;" parent="1" source="qKefjguTeevoIXmkZgeL-31" target="qKefjguTeevoIXmkZgeL-44" edge="1">
          <mxGeometry width="100" height="100" relative="1" as="geometry">
            <mxPoint x="543" y="219" as="sourcePoint" />
            <mxPoint x="643" y="119" as="targetPoint" />
          </mxGeometry>
        </mxCell>
        <mxCell id="qKefjguTeevoIXmkZgeL-51" value="" style="edgeStyle=entityRelationEdgeStyle;fontSize=12;html=1;endArrow=ERoneToMany;rounded=1;entryX=0;entryY=0.5;entryDx=0;entryDy=0;exitX=1;exitY=0.5;exitDx=0;exitDy=0;" parent="1" source="qKefjguTeevoIXmkZgeL-4" target="qKefjguTeevoIXmkZgeL-34" edge="1">
          <mxGeometry width="100" height="100" relative="1" as="geometry">
            <mxPoint x="370" y="170" as="sourcePoint" />
            <mxPoint x="470" y="70" as="targetPoint" />
          </mxGeometry>
        </mxCell>
      </root>
    </mxGraphModel>
  </diagram>
  <diagram id="Ix3Y3gYLKzSZ53KaWYXS" name="lines">
    <mxGraphModel dx="1098" dy="699" grid="1" gridSize="10" guides="1" tooltips="1" connect="1" arrows="1" fold="1" page="1" pageScale="1" pageWidth="1169" pageHeight="827" math="0" shadow="0">
      <root>
        <mxCell id="0" />
        <mxCell id="1" parent="0" />
        <mxCell id="KfKkdy-9sv88IH_Tk2Ss-1" value="organisation types" style="shape=table;startSize=30;container=1;collapsible=1;childLayout=tableLayout;fixedRows=1;rowLines=0;fontStyle=1;align=center;resizeLast=1;html=1;rounded=1;fontFamily=Comic Sans MS;fontSize=9;strokeColor=#6666FF;fillColor=none;opacity=40;gradientColor=none;swimlaneLine=1;shadow=0;strokeWidth=0.5;sketch=1;curveFitting=1;jiggle=2;arcSize=23;" parent="1" vertex="1">
          <mxGeometry x="120" y="167" width="170" height="90" as="geometry" />
        </mxCell>
        <mxCell id="KfKkdy-9sv88IH_Tk2Ss-2" value="" style="shape=tableRow;horizontal=0;startSize=0;swimlaneHead=0;swimlaneBody=0;fillColor=none;collapsible=0;dropTarget=0;points=[[0,0.5],[1,0.5]];portConstraint=eastwest;top=0;left=0;right=0;bottom=1;fontFamily=Comic Sans MS;fontSize=9;strokeColor=#6666FF;opacity=20;gradientColor=none;swimlaneLine=1;shadow=0;strokeWidth=0.5;sketch=1;curveFitting=1;jiggle=2;" parent="KfKkdy-9sv88IH_Tk2Ss-1" vertex="1">
          <mxGeometry y="30" width="170" height="30" as="geometry" />
        </mxCell>
        <mxCell id="KfKkdy-9sv88IH_Tk2Ss-3" value="PK" style="shape=partialRectangle;connectable=0;fillColor=none;top=0;left=0;bottom=0;right=0;fontStyle=1;overflow=hidden;whiteSpace=wrap;html=1;fontFamily=Comic Sans MS;fontSize=9;strokeColor=#6666FF;opacity=20;gradientColor=none;swimlaneLine=1;shadow=0;strokeWidth=0.5;sketch=1;curveFitting=1;jiggle=2;" parent="KfKkdy-9sv88IH_Tk2Ss-2" vertex="1">
          <mxGeometry width="30" height="30" as="geometry">
            <mxRectangle width="30" height="30" as="alternateBounds" />
          </mxGeometry>
        </mxCell>
        <mxCell id="KfKkdy-9sv88IH_Tk2Ss-4" value="&lt;p&gt;&lt;font face=&quot;Comic Sans MS&quot;&gt;organisation_type_id, integer&lt;/font&gt;&lt;/p&gt;" style="shape=partialRectangle;connectable=0;fillColor=none;top=0;left=0;bottom=0;right=0;align=left;spacingLeft=6;fontStyle=1;overflow=hidden;whiteSpace=wrap;html=1;fontFamily=Comic Sans MS;fontSize=9;strokeColor=#6666FF;opacity=20;gradientColor=none;swimlaneLine=1;shadow=0;strokeWidth=0.5;sketch=1;curveFitting=1;jiggle=2;" parent="KfKkdy-9sv88IH_Tk2Ss-2" vertex="1">
          <mxGeometry x="30" width="140" height="30" as="geometry">
            <mxRectangle width="140" height="30" as="alternateBounds" />
          </mxGeometry>
        </mxCell>
        <mxCell id="KfKkdy-9sv88IH_Tk2Ss-5" value="" style="shape=tableRow;horizontal=0;startSize=0;swimlaneHead=0;swimlaneBody=0;fillColor=none;collapsible=0;dropTarget=0;points=[[0,0.5],[1,0.5]];portConstraint=eastwest;top=0;left=0;right=0;bottom=0;fontFamily=Comic Sans MS;fontSize=9;strokeColor=#6666FF;opacity=20;gradientColor=none;swimlaneLine=1;shadow=0;strokeWidth=0.5;sketch=1;curveFitting=1;jiggle=2;" parent="KfKkdy-9sv88IH_Tk2Ss-1" vertex="1">
          <mxGeometry y="60" width="170" height="30" as="geometry" />
        </mxCell>
        <mxCell id="KfKkdy-9sv88IH_Tk2Ss-6" value="" style="shape=partialRectangle;connectable=0;fillColor=none;top=0;left=0;bottom=0;right=0;editable=1;overflow=hidden;whiteSpace=wrap;html=1;fontFamily=Comic Sans MS;fontSize=9;strokeColor=#6666FF;opacity=20;gradientColor=none;swimlaneLine=1;shadow=0;strokeWidth=0.5;sketch=1;curveFitting=1;jiggle=2;" parent="KfKkdy-9sv88IH_Tk2Ss-5" vertex="1">
          <mxGeometry width="30" height="30" as="geometry">
            <mxRectangle width="30" height="30" as="alternateBounds" />
          </mxGeometry>
        </mxCell>
        <mxCell id="KfKkdy-9sv88IH_Tk2Ss-7" value="organisation_type, string" style="shape=partialRectangle;connectable=0;fillColor=none;top=0;left=0;bottom=0;right=0;align=left;spacingLeft=6;overflow=hidden;whiteSpace=wrap;html=1;fontFamily=Comic Sans MS;fontSize=9;strokeColor=#6666FF;opacity=20;gradientColor=none;swimlaneLine=1;shadow=0;strokeWidth=0.5;sketch=1;curveFitting=1;jiggle=2;" parent="KfKkdy-9sv88IH_Tk2Ss-5" vertex="1">
          <mxGeometry x="30" width="140" height="30" as="geometry">
            <mxRectangle width="140" height="30" as="alternateBounds" />
          </mxGeometry>
        </mxCell>
        <mxCell id="KfKkdy-9sv88IH_Tk2Ss-8" value="organisations" style="shape=table;startSize=30;container=1;collapsible=1;childLayout=tableLayout;fixedRows=1;rowLines=0;fontStyle=1;align=center;resizeLast=1;html=1;rounded=1;fontFamily=Comic Sans MS;fontSize=9;strokeColor=#6666FF;fillColor=none;opacity=40;gradientColor=none;swimlaneLine=1;shadow=0;strokeWidth=0.5;arcSize=24;sketch=1;curveFitting=1;jiggle=2;" parent="1" vertex="1">
          <mxGeometry x="388" y="250" width="172" height="120" as="geometry" />
        </mxCell>
        <mxCell id="KfKkdy-9sv88IH_Tk2Ss-9" value="" style="shape=tableRow;horizontal=0;startSize=0;swimlaneHead=0;swimlaneBody=0;fillColor=none;collapsible=0;dropTarget=0;points=[[0,0.5],[1,0.5]];portConstraint=eastwest;top=0;left=0;right=0;bottom=1;fontFamily=Comic Sans MS;fontSize=9;strokeColor=#6666FF;opacity=20;gradientColor=none;swimlaneLine=1;shadow=0;strokeWidth=0.5;sketch=1;curveFitting=1;jiggle=2;" parent="KfKkdy-9sv88IH_Tk2Ss-8" vertex="1">
          <mxGeometry y="30" width="172" height="30" as="geometry" />
        </mxCell>
        <mxCell id="KfKkdy-9sv88IH_Tk2Ss-10" value="PK" style="shape=partialRectangle;connectable=0;fillColor=none;top=0;left=0;bottom=0;right=0;fontStyle=1;overflow=hidden;whiteSpace=wrap;html=1;fontFamily=Comic Sans MS;fontSize=9;strokeColor=#6666FF;opacity=20;gradientColor=none;swimlaneLine=1;shadow=0;strokeWidth=0.5;sketch=1;curveFitting=1;jiggle=2;" parent="KfKkdy-9sv88IH_Tk2Ss-9" vertex="1">
          <mxGeometry width="30" height="30" as="geometry">
            <mxRectangle width="30" height="30" as="alternateBounds" />
          </mxGeometry>
        </mxCell>
        <mxCell id="KfKkdy-9sv88IH_Tk2Ss-11" value="&lt;p&gt;&lt;font face=&quot;Comic Sans MS&quot;&gt;organisation_id, integer&lt;/font&gt;&lt;/p&gt;" style="shape=partialRectangle;connectable=0;fillColor=none;top=0;left=0;bottom=0;right=0;align=left;spacingLeft=6;fontStyle=1;overflow=hidden;whiteSpace=wrap;html=1;fontFamily=Comic Sans MS;fontSize=9;strokeColor=#6666FF;opacity=20;gradientColor=none;swimlaneLine=1;shadow=0;strokeWidth=0.5;sketch=1;curveFitting=1;jiggle=2;" parent="KfKkdy-9sv88IH_Tk2Ss-9" vertex="1">
          <mxGeometry x="30" width="142" height="30" as="geometry">
            <mxRectangle width="142" height="30" as="alternateBounds" />
          </mxGeometry>
        </mxCell>
        <mxCell id="KfKkdy-9sv88IH_Tk2Ss-12" value="" style="shape=tableRow;horizontal=0;startSize=0;swimlaneHead=0;swimlaneBody=0;fillColor=none;collapsible=0;dropTarget=0;points=[[0,0.5],[1,0.5]];portConstraint=eastwest;top=0;left=0;right=0;bottom=0;fontFamily=Comic Sans MS;fontSize=9;strokeColor=#6666FF;opacity=20;gradientColor=none;swimlaneLine=1;shadow=0;strokeWidth=0.5;sketch=1;curveFitting=1;jiggle=2;" parent="KfKkdy-9sv88IH_Tk2Ss-8" vertex="1">
          <mxGeometry y="60" width="172" height="30" as="geometry" />
        </mxCell>
        <mxCell id="KfKkdy-9sv88IH_Tk2Ss-13" value="FK" style="shape=partialRectangle;connectable=0;fillColor=none;top=0;left=0;bottom=0;right=0;editable=1;overflow=hidden;whiteSpace=wrap;html=1;fontFamily=Comic Sans MS;fontSize=9;strokeColor=#6666FF;opacity=20;gradientColor=none;swimlaneLine=1;shadow=0;strokeWidth=0.5;sketch=1;curveFitting=1;jiggle=2;" parent="KfKkdy-9sv88IH_Tk2Ss-12" vertex="1">
          <mxGeometry width="30" height="30" as="geometry">
            <mxRectangle width="30" height="30" as="alternateBounds" />
          </mxGeometry>
        </mxCell>
        <mxCell id="KfKkdy-9sv88IH_Tk2Ss-14" value="organisation_type_id, integer" style="shape=partialRectangle;connectable=0;fillColor=none;top=0;left=0;bottom=0;right=0;align=left;spacingLeft=6;overflow=hidden;whiteSpace=wrap;html=1;fontFamily=Comic Sans MS;fontSize=9;strokeColor=#6666FF;opacity=20;gradientColor=none;swimlaneLine=1;shadow=0;strokeWidth=0.5;sketch=1;curveFitting=1;jiggle=2;" parent="KfKkdy-9sv88IH_Tk2Ss-12" vertex="1">
          <mxGeometry x="30" width="142" height="30" as="geometry">
            <mxRectangle width="142" height="30" as="alternateBounds" />
          </mxGeometry>
        </mxCell>
        <mxCell id="KfKkdy-9sv88IH_Tk2Ss-15" value="" style="shape=tableRow;horizontal=0;startSize=0;swimlaneHead=0;swimlaneBody=0;fillColor=none;collapsible=0;dropTarget=0;points=[[0,0.5],[1,0.5]];portConstraint=eastwest;top=0;left=0;right=0;bottom=0;fontFamily=Comic Sans MS;fontSize=9;strokeColor=#6666FF;opacity=20;gradientColor=none;swimlaneLine=1;shadow=0;strokeWidth=0.5;sketch=1;curveFitting=1;jiggle=2;" parent="KfKkdy-9sv88IH_Tk2Ss-8" vertex="1">
          <mxGeometry y="90" width="172" height="30" as="geometry" />
        </mxCell>
        <mxCell id="KfKkdy-9sv88IH_Tk2Ss-16" value="" style="shape=partialRectangle;connectable=0;fillColor=none;top=0;left=0;bottom=0;right=0;editable=1;overflow=hidden;whiteSpace=wrap;html=1;fontFamily=Comic Sans MS;fontSize=9;strokeColor=#6666FF;opacity=20;gradientColor=none;swimlaneLine=1;shadow=0;strokeWidth=0.5;sketch=1;curveFitting=1;jiggle=2;" parent="KfKkdy-9sv88IH_Tk2Ss-15" vertex="1">
          <mxGeometry width="30" height="30" as="geometry">
            <mxRectangle width="30" height="30" as="alternateBounds" />
          </mxGeometry>
        </mxCell>
        <mxCell id="KfKkdy-9sv88IH_Tk2Ss-17" value="organisation_name, string" style="shape=partialRectangle;connectable=0;fillColor=none;top=0;left=0;bottom=0;right=0;align=left;spacingLeft=6;overflow=hidden;whiteSpace=wrap;html=1;fontFamily=Comic Sans MS;fontSize=9;strokeColor=#6666FF;opacity=20;gradientColor=none;swimlaneLine=1;shadow=0;strokeWidth=0.5;sketch=1;curveFitting=1;jiggle=2;" parent="KfKkdy-9sv88IH_Tk2Ss-15" vertex="1">
          <mxGeometry x="30" width="142" height="30" as="geometry">
            <mxRectangle width="142" height="30" as="alternateBounds" />
          </mxGeometry>
        </mxCell>
        <mxCell id="KfKkdy-9sv88IH_Tk2Ss-18" value="documents" style="shape=table;startSize=30;container=1;collapsible=1;childLayout=tableLayout;fixedRows=1;rowLines=0;fontStyle=1;align=center;resizeLast=1;html=1;rounded=1;fontFamily=Comic Sans MS;fontSize=9;strokeColor=#6666FF;fillColor=none;opacity=40;gradientColor=none;swimlaneLine=1;shadow=1;strokeWidth=0.5;arcSize=24;sketch=1;curveFitting=1;jiggle=2;" parent="1" vertex="1">
          <mxGeometry x="658" y="330" width="180" height="120" as="geometry" />
        </mxCell>
        <mxCell id="KfKkdy-9sv88IH_Tk2Ss-19" value="" style="shape=tableRow;horizontal=0;startSize=0;swimlaneHead=0;swimlaneBody=0;fillColor=none;collapsible=0;dropTarget=0;points=[[0,0.5],[1,0.5]];portConstraint=eastwest;top=0;left=0;right=0;bottom=1;fontFamily=Comic Sans MS;fontSize=9;strokeColor=#6666FF;opacity=30;gradientColor=none;swimlaneLine=1;shadow=1;strokeWidth=0.5;sketch=1;curveFitting=1;jiggle=2;" parent="KfKkdy-9sv88IH_Tk2Ss-18" vertex="1">
          <mxGeometry y="30" width="180" height="30" as="geometry" />
        </mxCell>
        <mxCell id="KfKkdy-9sv88IH_Tk2Ss-20" value="PK" style="shape=partialRectangle;connectable=0;fillColor=none;top=0;left=0;bottom=0;right=0;fontStyle=1;overflow=hidden;whiteSpace=wrap;html=1;fontFamily=Comic Sans MS;fontSize=9;strokeColor=#6666FF;opacity=30;gradientColor=none;swimlaneLine=1;shadow=1;strokeWidth=0.5;sketch=1;curveFitting=1;jiggle=2;" parent="KfKkdy-9sv88IH_Tk2Ss-19" vertex="1">
          <mxGeometry width="30" height="30" as="geometry">
            <mxRectangle width="30" height="30" as="alternateBounds" />
          </mxGeometry>
        </mxCell>
        <mxCell id="KfKkdy-9sv88IH_Tk2Ss-21" value="&lt;p&gt;&lt;font face=&quot;Comic Sans MS&quot;&gt;document_id, integer&lt;/font&gt;&lt;/p&gt;" style="shape=partialRectangle;connectable=0;fillColor=none;top=0;left=0;bottom=0;right=0;align=left;spacingLeft=6;fontStyle=1;overflow=hidden;whiteSpace=wrap;html=1;fontFamily=Comic Sans MS;fontSize=9;strokeColor=#6666FF;opacity=30;gradientColor=none;swimlaneLine=1;shadow=1;strokeWidth=0.5;sketch=1;curveFitting=1;jiggle=2;" parent="KfKkdy-9sv88IH_Tk2Ss-19" vertex="1">
          <mxGeometry x="30" width="150" height="30" as="geometry">
            <mxRectangle width="150" height="30" as="alternateBounds" />
          </mxGeometry>
        </mxCell>
        <mxCell id="KfKkdy-9sv88IH_Tk2Ss-22" value="" style="shape=tableRow;horizontal=0;startSize=0;swimlaneHead=0;swimlaneBody=0;fillColor=none;collapsible=0;dropTarget=0;points=[[0,0.5],[1,0.5]];portConstraint=eastwest;top=0;left=0;right=0;bottom=0;fontFamily=Comic Sans MS;fontSize=9;strokeColor=#6666FF;opacity=30;gradientColor=none;swimlaneLine=1;shadow=1;strokeWidth=0.5;sketch=1;curveFitting=1;jiggle=2;" parent="KfKkdy-9sv88IH_Tk2Ss-18" vertex="1">
          <mxGeometry y="60" width="180" height="30" as="geometry" />
        </mxCell>
        <mxCell id="KfKkdy-9sv88IH_Tk2Ss-23" value="FK" style="shape=partialRectangle;connectable=0;fillColor=none;top=0;left=0;bottom=0;right=0;editable=1;overflow=hidden;whiteSpace=wrap;html=1;fontFamily=Comic Sans MS;fontSize=9;strokeColor=#6666FF;opacity=30;gradientColor=none;swimlaneLine=1;shadow=1;strokeWidth=0.5;sketch=1;curveFitting=1;jiggle=2;" parent="KfKkdy-9sv88IH_Tk2Ss-22" vertex="1">
          <mxGeometry width="30" height="30" as="geometry">
            <mxRectangle width="30" height="30" as="alternateBounds" />
          </mxGeometry>
        </mxCell>
        <mxCell id="KfKkdy-9sv88IH_Tk2Ss-24" value="organisation_id, integer" style="shape=partialRectangle;connectable=0;fillColor=none;top=0;left=0;bottom=0;right=0;align=left;spacingLeft=6;overflow=hidden;whiteSpace=wrap;html=1;fontFamily=Comic Sans MS;fontSize=9;strokeColor=#6666FF;opacity=30;gradientColor=none;swimlaneLine=1;shadow=1;strokeWidth=0.5;sketch=1;curveFitting=1;jiggle=2;" parent="KfKkdy-9sv88IH_Tk2Ss-22" vertex="1">
          <mxGeometry x="30" width="150" height="30" as="geometry">
            <mxRectangle width="150" height="30" as="alternateBounds" />
          </mxGeometry>
        </mxCell>
        <mxCell id="KfKkdy-9sv88IH_Tk2Ss-25" value="" style="shape=tableRow;horizontal=0;startSize=0;swimlaneHead=0;swimlaneBody=0;fillColor=none;collapsible=0;dropTarget=0;points=[[0,0.5],[1,0.5]];portConstraint=eastwest;top=0;left=0;right=0;bottom=0;fontFamily=Comic Sans MS;fontSize=9;strokeColor=#6666FF;opacity=30;gradientColor=none;swimlaneLine=1;shadow=1;strokeWidth=0.5;sketch=1;curveFitting=1;jiggle=2;" parent="KfKkdy-9sv88IH_Tk2Ss-18" vertex="1">
          <mxGeometry y="90" width="180" height="30" as="geometry" />
        </mxCell>
        <mxCell id="KfKkdy-9sv88IH_Tk2Ss-26" value="" style="shape=partialRectangle;connectable=0;fillColor=none;top=0;left=0;bottom=0;right=0;editable=1;overflow=hidden;whiteSpace=wrap;html=1;fontFamily=Comic Sans MS;fontSize=9;strokeColor=#6666FF;opacity=30;gradientColor=none;swimlaneLine=1;shadow=1;strokeWidth=0.5;sketch=1;curveFitting=1;jiggle=2;" parent="KfKkdy-9sv88IH_Tk2Ss-25" vertex="1">
          <mxGeometry width="30" height="30" as="geometry">
            <mxRectangle width="30" height="30" as="alternateBounds" />
          </mxGeometry>
        </mxCell>
        <mxCell id="KfKkdy-9sv88IH_Tk2Ss-27" value="starting_year, integer" style="shape=partialRectangle;connectable=0;fillColor=none;top=0;left=0;bottom=0;right=0;align=left;spacingLeft=6;overflow=hidden;whiteSpace=wrap;html=1;fontFamily=Comic Sans MS;fontSize=9;strokeColor=#6666FF;opacity=30;gradientColor=none;swimlaneLine=1;shadow=1;strokeWidth=0.5;sketch=1;curveFitting=1;jiggle=2;" parent="KfKkdy-9sv88IH_Tk2Ss-25" vertex="1">
          <mxGeometry x="30" width="150" height="30" as="geometry">
            <mxRectangle width="150" height="30" as="alternateBounds" />
          </mxGeometry>
        </mxCell>
        <mxCell id="KfKkdy-9sv88IH_Tk2Ss-28" value="" style="edgeStyle=entityRelationEdgeStyle;fontSize=12;html=1;endArrow=ERoneToMany;rounded=1;entryX=0;entryY=0.5;entryDx=0;entryDy=0;strokeColor=#6666FF;strokeWidth=0.5;" parent="1" source="KfKkdy-9sv88IH_Tk2Ss-9" target="KfKkdy-9sv88IH_Tk2Ss-22" edge="1">
          <mxGeometry width="100" height="100" relative="1" as="geometry">
            <mxPoint x="543" y="219" as="sourcePoint" />
            <mxPoint x="643" y="119" as="targetPoint" />
          </mxGeometry>
        </mxCell>
        <mxCell id="KfKkdy-9sv88IH_Tk2Ss-29" value="" style="edgeStyle=entityRelationEdgeStyle;fontSize=12;html=1;endArrow=ERoneToMany;rounded=1;entryX=0;entryY=0.5;entryDx=0;entryDy=0;exitX=1;exitY=0.5;exitDx=0;exitDy=0;strokeColor=#6666FF;strokeWidth=0.5;" parent="1" source="KfKkdy-9sv88IH_Tk2Ss-2" target="KfKkdy-9sv88IH_Tk2Ss-12" edge="1">
          <mxGeometry width="100" height="100" relative="1" as="geometry">
            <mxPoint x="370" y="170" as="sourcePoint" />
            <mxPoint x="470" y="70" as="targetPoint" />
          </mxGeometry>
        </mxCell>
      </root>
    </mxGraphModel>
  </diagram>
  <diagram id="GY4v79h8dkL7mVMEeTBo" name="simple">
    <mxGraphModel dx="1098" dy="699" grid="1" gridSize="10" guides="1" tooltips="1" connect="1" arrows="1" fold="1" page="1" pageScale="1" pageWidth="1169" pageHeight="827" math="0" shadow="0">
      <root>
        <mxCell id="0" />
        <mxCell id="1" parent="0" />
        <mxCell id="pFn4R3g04_g3cw62Z65F-1" value="simple" style="shape=table;startSize=30;container=1;collapsible=1;childLayout=tableLayout;fixedRows=1;rowLines=0;fontStyle=1;align=center;resizeLast=1;html=1;rounded=1;fontFamily=Comic Sans MS;fontSize=9;strokeColor=#6666FF;fillColor=none;opacity=40;gradientColor=none;swimlaneLine=1;shadow=1;strokeWidth=0.5;arcSize=24;sketch=1;curveFitting=1;jiggle=2;" vertex="1" parent="1">
          <mxGeometry x="390" y="140" width="240" height="360" as="geometry" />
        </mxCell>
        <mxCell id="pFn4R3g04_g3cw62Z65F-2" value="" style="shape=tableRow;horizontal=0;startSize=0;swimlaneHead=0;swimlaneBody=0;fillColor=none;collapsible=0;dropTarget=0;points=[[0,0.5],[1,0.5]];portConstraint=eastwest;top=0;left=0;right=0;bottom=1;fontFamily=Comic Sans MS;fontSize=9;strokeColor=#994C00;opacity=30;gradientColor=none;swimlaneLine=1;shadow=1;strokeWidth=0.5;sketch=1;curveFitting=1;jiggle=2;" vertex="1" parent="pFn4R3g04_g3cw62Z65F-1">
          <mxGeometry y="30" width="240" height="30" as="geometry" />
        </mxCell>
        <mxCell id="pFn4R3g04_g3cw62Z65F-3" value="PK" style="shape=partialRectangle;connectable=0;fillColor=none;top=0;left=0;bottom=0;right=0;fontStyle=1;overflow=hidden;whiteSpace=wrap;html=1;fontFamily=Comic Sans MS;fontSize=9;strokeColor=#994C00;opacity=30;gradientColor=none;swimlaneLine=1;shadow=1;strokeWidth=0.5;sketch=1;curveFitting=1;jiggle=2;fontColor=#B3B3B3;verticalAlign=middle;spacingLeft=0;spacingBottom=-6;" vertex="1" parent="pFn4R3g04_g3cw62Z65F-2">
          <mxGeometry width="30" height="30" as="geometry">
            <mxRectangle width="30" height="30" as="alternateBounds" />
          </mxGeometry>
        </mxCell>
        <mxCell id="pFn4R3g04_g3cw62Z65F-4" value="&lt;p&gt;&lt;font face=&quot;Comic Sans MS&quot;&gt;unique_identification_code, integer&lt;/font&gt;&lt;/p&gt;" style="shape=partialRectangle;connectable=0;fillColor=none;top=0;left=0;bottom=0;right=0;align=left;spacingLeft=6;fontStyle=1;overflow=hidden;whiteSpace=wrap;html=1;fontFamily=Comic Sans MS;fontSize=9;strokeColor=#994C00;opacity=30;gradientColor=none;swimlaneLine=1;shadow=1;strokeWidth=0.5;sketch=1;curveFitting=1;jiggle=2;fontColor=#B3B3B3;verticalAlign=middle;" vertex="1" parent="pFn4R3g04_g3cw62Z65F-2">
          <mxGeometry x="30" width="210" height="30" as="geometry">
            <mxRectangle width="210" height="30" as="alternateBounds" />
          </mxGeometry>
        </mxCell>
        <mxCell id="pFn4R3g04_g3cw62Z65F-5" value="" style="shape=tableRow;horizontal=0;startSize=0;swimlaneHead=0;swimlaneBody=0;fillColor=none;collapsible=0;dropTarget=0;points=[[0,0.5],[1,0.5]];portConstraint=eastwest;top=0;left=0;right=0;bottom=0;fontFamily=Comic Sans MS;fontSize=9;strokeColor=#994C00;opacity=30;gradientColor=none;swimlaneLine=1;shadow=1;strokeWidth=0.5;sketch=1;curveFitting=1;jiggle=2;" vertex="1" parent="pFn4R3g04_g3cw62Z65F-1">
          <mxGeometry y="60" width="240" height="30" as="geometry" />
        </mxCell>
        <mxCell id="pFn4R3g04_g3cw62Z65F-6" value="" style="shape=partialRectangle;connectable=0;fillColor=none;top=0;left=0;bottom=0;right=0;editable=1;overflow=hidden;whiteSpace=wrap;html=1;fontFamily=Comic Sans MS;fontSize=9;strokeColor=#994C00;opacity=30;gradientColor=none;swimlaneLine=1;shadow=1;strokeWidth=0.5;sketch=1;curveFitting=1;jiggle=2;" vertex="1" parent="pFn4R3g04_g3cw62Z65F-5">
          <mxGeometry width="30" height="30" as="geometry">
            <mxRectangle width="30" height="30" as="alternateBounds" />
          </mxGeometry>
        </mxCell>
        <mxCell id="pFn4R3g04_g3cw62Z65F-7" value="consumption_data, float" style="shape=partialRectangle;connectable=0;fillColor=none;top=0;left=0;bottom=0;right=0;align=left;spacingLeft=6;overflow=hidden;whiteSpace=wrap;html=1;fontFamily=Comic Sans MS;fontSize=9;strokeColor=#994C00;opacity=30;gradientColor=none;swimlaneLine=1;shadow=1;strokeWidth=0.5;sketch=1;curveFitting=1;jiggle=2;" vertex="1" parent="pFn4R3g04_g3cw62Z65F-5">
          <mxGeometry x="30" width="210" height="30" as="geometry">
            <mxRectangle width="210" height="30" as="alternateBounds" />
          </mxGeometry>
        </mxCell>
        <mxCell id="pFn4R3g04_g3cw62Z65F-8" value="" style="shape=tableRow;horizontal=0;startSize=0;swimlaneHead=0;swimlaneBody=0;fillColor=none;collapsible=0;dropTarget=0;points=[[0,0.5],[1,0.5]];portConstraint=eastwest;top=0;left=0;right=0;bottom=0;fontFamily=Comic Sans MS;fontSize=9;strokeColor=#994C00;opacity=30;gradientColor=none;swimlaneLine=1;shadow=1;strokeWidth=0.5;sketch=1;curveFitting=1;jiggle=2;" vertex="1" parent="pFn4R3g04_g3cw62Z65F-1">
          <mxGeometry y="90" width="240" height="30" as="geometry" />
        </mxCell>
        <mxCell id="pFn4R3g04_g3cw62Z65F-9" value="" style="shape=partialRectangle;connectable=0;fillColor=none;top=0;left=0;bottom=0;right=0;editable=1;overflow=hidden;whiteSpace=wrap;html=1;fontFamily=Comic Sans MS;fontSize=9;strokeColor=#994C00;opacity=30;gradientColor=none;swimlaneLine=1;shadow=1;strokeWidth=0.5;sketch=1;curveFitting=1;jiggle=2;" vertex="1" parent="pFn4R3g04_g3cw62Z65F-8">
          <mxGeometry width="30" height="30" as="geometry">
            <mxRectangle width="30" height="30" as="alternateBounds" />
          </mxGeometry>
        </mxCell>
        <mxCell id="pFn4R3g04_g3cw62Z65F-10" value="consumption_data_unit_id, float" style="shape=partialRectangle;connectable=0;fillColor=none;top=0;left=0;bottom=0;right=0;align=left;spacingLeft=6;overflow=hidden;whiteSpace=wrap;html=1;fontFamily=Comic Sans MS;fontSize=9;strokeColor=#994C00;opacity=30;gradientColor=none;swimlaneLine=1;shadow=1;strokeWidth=0.5;sketch=1;curveFitting=1;jiggle=2;" vertex="1" parent="pFn4R3g04_g3cw62Z65F-8">
          <mxGeometry x="30" width="210" height="30" as="geometry">
            <mxRectangle width="210" height="30" as="alternateBounds" />
          </mxGeometry>
        </mxCell>
        <mxCell id="pFn4R3g04_g3cw62Z65F-11" value="" style="shape=tableRow;horizontal=0;startSize=0;swimlaneHead=0;swimlaneBody=0;fillColor=none;collapsible=0;dropTarget=0;points=[[0,0.5],[1,0.5]];portConstraint=eastwest;top=0;left=0;right=0;bottom=0;fontFamily=Comic Sans MS;fontSize=9;strokeColor=#994C00;opacity=30;gradientColor=none;swimlaneLine=1;shadow=1;strokeWidth=0.5;sketch=1;curveFitting=1;jiggle=2;" vertex="1" parent="pFn4R3g04_g3cw62Z65F-1">
          <mxGeometry y="120" width="240" height="30" as="geometry" />
        </mxCell>
        <mxCell id="pFn4R3g04_g3cw62Z65F-12" value="" style="shape=partialRectangle;connectable=0;fillColor=none;top=0;left=0;bottom=0;right=0;editable=1;overflow=hidden;whiteSpace=wrap;html=1;fontFamily=Comic Sans MS;fontSize=9;strokeColor=#994C00;opacity=30;gradientColor=none;swimlaneLine=1;shadow=1;strokeWidth=0.5;sketch=1;curveFitting=1;jiggle=2;" vertex="1" parent="pFn4R3g04_g3cw62Z65F-11">
          <mxGeometry width="30" height="30" as="geometry">
            <mxRectangle width="30" height="30" as="alternateBounds" />
          </mxGeometry>
        </mxCell>
        <mxCell id="pFn4R3g04_g3cw62Z65F-13" value="emission_factor, float" style="shape=partialRectangle;connectable=0;fillColor=none;top=0;left=0;bottom=0;right=0;align=left;spacingLeft=6;overflow=hidden;whiteSpace=wrap;html=1;fontFamily=Comic Sans MS;fontSize=9;strokeColor=#994C00;opacity=30;gradientColor=none;swimlaneLine=1;shadow=1;strokeWidth=0.5;sketch=1;curveFitting=1;jiggle=2;" vertex="1" parent="pFn4R3g04_g3cw62Z65F-11">
          <mxGeometry x="30" width="210" height="30" as="geometry">
            <mxRectangle width="210" height="30" as="alternateBounds" />
          </mxGeometry>
        </mxCell>
        <mxCell id="pFn4R3g04_g3cw62Z65F-14" value="" style="shape=tableRow;horizontal=0;startSize=0;swimlaneHead=0;swimlaneBody=0;fillColor=none;collapsible=0;dropTarget=0;points=[[0,0.5],[1,0.5]];portConstraint=eastwest;top=0;left=0;right=0;bottom=0;fontFamily=Comic Sans MS;fontSize=9;strokeColor=#994C00;opacity=30;gradientColor=none;swimlaneLine=1;shadow=1;strokeWidth=0.5;sketch=1;curveFitting=1;jiggle=2;" vertex="1" parent="pFn4R3g04_g3cw62Z65F-1">
          <mxGeometry y="150" width="240" height="30" as="geometry" />
        </mxCell>
        <mxCell id="pFn4R3g04_g3cw62Z65F-15" value="" style="shape=partialRectangle;connectable=0;fillColor=none;top=0;left=0;bottom=0;right=0;editable=1;overflow=hidden;whiteSpace=wrap;html=1;fontFamily=Comic Sans MS;fontSize=9;strokeColor=#994C00;opacity=30;gradientColor=none;swimlaneLine=1;shadow=1;strokeWidth=0.5;sketch=1;curveFitting=1;jiggle=2;" vertex="1" parent="pFn4R3g04_g3cw62Z65F-14">
          <mxGeometry width="30" height="30" as="geometry">
            <mxRectangle width="30" height="30" as="alternateBounds" />
          </mxGeometry>
        </mxCell>
        <mxCell id="pFn4R3g04_g3cw62Z65F-16" value="&lt;font color=&quot;#000000&quot;&gt;&lt;b&gt;emission_factor_unit, str (temporary)&lt;/b&gt;&lt;/font&gt;" style="shape=partialRectangle;connectable=0;fillColor=none;top=0;left=0;bottom=0;right=0;align=left;spacingLeft=6;overflow=hidden;whiteSpace=wrap;html=1;fontFamily=Comic Sans MS;fontSize=9;strokeColor=#994C00;opacity=30;gradientColor=none;swimlaneLine=1;shadow=1;strokeWidth=0.5;sketch=1;curveFitting=1;jiggle=2;fontColor=#FF8000;" vertex="1" parent="pFn4R3g04_g3cw62Z65F-14">
          <mxGeometry x="30" width="210" height="30" as="geometry">
            <mxRectangle width="210" height="30" as="alternateBounds" />
          </mxGeometry>
        </mxCell>
        <mxCell id="pFn4R3g04_g3cw62Z65F-17" value="" style="shape=tableRow;horizontal=0;startSize=0;swimlaneHead=0;swimlaneBody=0;fillColor=none;collapsible=0;dropTarget=0;points=[[0,0.5],[1,0.5]];portConstraint=eastwest;top=0;left=0;right=0;bottom=0;fontFamily=Comic Sans MS;fontSize=9;strokeColor=#994C00;opacity=30;gradientColor=none;swimlaneLine=1;shadow=1;strokeWidth=0.5;sketch=1;curveFitting=1;jiggle=2;" vertex="1" parent="pFn4R3g04_g3cw62Z65F-1">
          <mxGeometry y="180" width="240" height="30" as="geometry" />
        </mxCell>
        <mxCell id="pFn4R3g04_g3cw62Z65F-18" value="" style="shape=partialRectangle;connectable=0;fillColor=none;top=0;left=0;bottom=0;right=0;editable=1;overflow=hidden;whiteSpace=wrap;html=1;fontFamily=Comic Sans MS;fontSize=9;strokeColor=#994C00;opacity=30;gradientColor=none;swimlaneLine=1;shadow=1;strokeWidth=0.5;sketch=1;curveFitting=1;jiggle=2;" vertex="1" parent="pFn4R3g04_g3cw62Z65F-17">
          <mxGeometry width="30" height="30" as="geometry">
            <mxRectangle width="30" height="30" as="alternateBounds" />
          </mxGeometry>
        </mxCell>
        <mxCell id="pFn4R3g04_g3cw62Z65F-19" value="emission_tCO2e, float" style="shape=partialRectangle;connectable=0;fillColor=none;top=0;left=0;bottom=0;right=0;align=left;spacingLeft=6;overflow=hidden;whiteSpace=wrap;html=1;fontFamily=Comic Sans MS;fontSize=9;strokeColor=#994C00;opacity=30;gradientColor=none;swimlaneLine=1;shadow=1;strokeWidth=0.5;sketch=1;curveFitting=1;jiggle=2;" vertex="1" parent="pFn4R3g04_g3cw62Z65F-17">
          <mxGeometry x="30" width="210" height="30" as="geometry">
            <mxRectangle width="210" height="30" as="alternateBounds" />
          </mxGeometry>
        </mxCell>
        <mxCell id="pFn4R3g04_g3cw62Z65F-20" value="" style="shape=tableRow;horizontal=0;startSize=0;swimlaneHead=0;swimlaneBody=0;fillColor=none;collapsible=0;dropTarget=0;points=[[0,0.5],[1,0.5]];portConstraint=eastwest;top=0;left=0;right=0;bottom=0;fontFamily=Comic Sans MS;fontSize=9;strokeColor=#994C00;opacity=30;gradientColor=none;swimlaneLine=1;shadow=1;strokeWidth=0.5;sketch=1;curveFitting=1;jiggle=2;" vertex="1" parent="pFn4R3g04_g3cw62Z65F-1">
          <mxGeometry y="210" width="240" height="30" as="geometry" />
        </mxCell>
        <mxCell id="pFn4R3g04_g3cw62Z65F-21" value="" style="shape=partialRectangle;connectable=0;fillColor=none;top=0;left=0;bottom=0;right=0;editable=1;overflow=hidden;whiteSpace=wrap;html=1;fontFamily=Comic Sans MS;fontSize=9;strokeColor=#994C00;opacity=30;gradientColor=none;swimlaneLine=1;shadow=1;strokeWidth=0.5;sketch=1;curveFitting=1;jiggle=2;" vertex="1" parent="pFn4R3g04_g3cw62Z65F-20">
          <mxGeometry width="30" height="30" as="geometry">
            <mxRectangle width="30" height="30" as="alternateBounds" />
          </mxGeometry>
        </mxCell>
        <mxCell id="pFn4R3g04_g3cw62Z65F-22" value="starting_year,&amp;nbsp;integer" style="shape=partialRectangle;connectable=0;fillColor=none;top=0;left=0;bottom=0;right=0;align=left;spacingLeft=6;overflow=hidden;whiteSpace=wrap;html=1;fontFamily=Comic Sans MS;fontSize=9;strokeColor=#994C00;opacity=30;gradientColor=none;swimlaneLine=1;shadow=1;strokeWidth=0.5;sketch=1;curveFitting=1;jiggle=2;" vertex="1" parent="pFn4R3g04_g3cw62Z65F-20">
          <mxGeometry x="30" width="210" height="30" as="geometry">
            <mxRectangle width="210" height="30" as="alternateBounds" />
          </mxGeometry>
        </mxCell>
        <mxCell id="pFn4R3g04_g3cw62Z65F-23" value="" style="shape=tableRow;horizontal=0;startSize=0;swimlaneHead=0;swimlaneBody=0;fillColor=none;collapsible=0;dropTarget=0;points=[[0,0.5],[1,0.5]];portConstraint=eastwest;top=0;left=0;right=0;bottom=0;fontFamily=Comic Sans MS;fontSize=9;strokeColor=#994C00;opacity=30;gradientColor=none;swimlaneLine=1;shadow=1;strokeWidth=0.5;sketch=1;curveFitting=1;jiggle=2;" vertex="1" parent="pFn4R3g04_g3cw62Z65F-1">
          <mxGeometry y="240" width="240" height="30" as="geometry" />
        </mxCell>
        <mxCell id="pFn4R3g04_g3cw62Z65F-24" value="" style="shape=partialRectangle;connectable=0;fillColor=none;top=0;left=0;bottom=0;right=0;editable=1;overflow=hidden;whiteSpace=wrap;html=1;fontFamily=Comic Sans MS;fontSize=9;strokeColor=#994C00;opacity=30;gradientColor=none;swimlaneLine=1;shadow=1;strokeWidth=0.5;sketch=1;curveFitting=1;jiggle=2;" vertex="1" parent="pFn4R3g04_g3cw62Z65F-23">
          <mxGeometry width="30" height="30" as="geometry">
            <mxRectangle width="30" height="30" as="alternateBounds" />
          </mxGeometry>
        </mxCell>
        <mxCell id="pFn4R3g04_g3cw62Z65F-25" value="organisation_id,&amp;nbsp;integer" style="shape=partialRectangle;connectable=0;fillColor=none;top=0;left=0;bottom=0;right=0;align=left;spacingLeft=6;overflow=hidden;whiteSpace=wrap;html=1;fontFamily=Comic Sans MS;fontSize=9;strokeColor=#994C00;opacity=30;gradientColor=none;swimlaneLine=1;shadow=1;strokeWidth=0.5;sketch=1;curveFitting=1;jiggle=2;" vertex="1" parent="pFn4R3g04_g3cw62Z65F-23">
          <mxGeometry x="30" width="210" height="30" as="geometry">
            <mxRectangle width="210" height="30" as="alternateBounds" />
          </mxGeometry>
        </mxCell>
        <mxCell id="pFn4R3g04_g3cw62Z65F-26" value="" style="shape=tableRow;horizontal=0;startSize=0;swimlaneHead=0;swimlaneBody=0;fillColor=none;collapsible=0;dropTarget=0;points=[[0,0.5],[1,0.5]];portConstraint=eastwest;top=0;left=0;right=0;bottom=0;fontFamily=Comic Sans MS;fontSize=9;strokeColor=#994C00;opacity=30;gradientColor=none;swimlaneLine=1;shadow=1;strokeWidth=0.5;sketch=1;curveFitting=1;jiggle=2;" vertex="1" parent="pFn4R3g04_g3cw62Z65F-1">
          <mxGeometry y="270" width="240" height="30" as="geometry" />
        </mxCell>
        <mxCell id="pFn4R3g04_g3cw62Z65F-27" value="" style="shape=partialRectangle;connectable=0;fillColor=none;top=0;left=0;bottom=0;right=0;editable=1;overflow=hidden;whiteSpace=wrap;html=1;fontFamily=Comic Sans MS;fontSize=9;strokeColor=#994C00;opacity=30;gradientColor=none;swimlaneLine=1;shadow=1;strokeWidth=0.5;sketch=1;curveFitting=1;jiggle=2;" vertex="1" parent="pFn4R3g04_g3cw62Z65F-26">
          <mxGeometry width="30" height="30" as="geometry">
            <mxRectangle width="30" height="30" as="alternateBounds" />
          </mxGeometry>
        </mxCell>
        <mxCell id="pFn4R3g04_g3cw62Z65F-28" value="emission_type_id,&amp;nbsp;integer" style="shape=partialRectangle;connectable=0;fillColor=none;top=0;left=0;bottom=0;right=0;align=left;spacingLeft=6;overflow=hidden;whiteSpace=wrap;html=1;fontFamily=Comic Sans MS;fontSize=9;strokeColor=#994C00;opacity=30;gradientColor=none;swimlaneLine=1;shadow=1;strokeWidth=0.5;sketch=1;curveFitting=1;jiggle=2;" vertex="1" parent="pFn4R3g04_g3cw62Z65F-26">
          <mxGeometry x="30" width="210" height="30" as="geometry">
            <mxRectangle width="210" height="30" as="alternateBounds" />
          </mxGeometry>
        </mxCell>
        <mxCell id="pFn4R3g04_g3cw62Z65F-29" value="" style="shape=tableRow;horizontal=0;startSize=0;swimlaneHead=0;swimlaneBody=0;fillColor=none;collapsible=0;dropTarget=0;points=[[0,0.5],[1,0.5]];portConstraint=eastwest;top=0;left=0;right=0;bottom=0;fontFamily=Comic Sans MS;fontSize=9;strokeColor=#994C00;opacity=30;gradientColor=none;swimlaneLine=1;shadow=1;strokeWidth=0.5;sketch=1;curveFitting=1;jiggle=2;" vertex="1" parent="pFn4R3g04_g3cw62Z65F-1">
          <mxGeometry y="300" width="240" height="30" as="geometry" />
        </mxCell>
        <mxCell id="pFn4R3g04_g3cw62Z65F-30" value="" style="shape=partialRectangle;connectable=0;fillColor=none;top=0;left=0;bottom=0;right=0;editable=1;overflow=hidden;whiteSpace=wrap;html=1;fontFamily=Comic Sans MS;fontSize=9;strokeColor=#994C00;opacity=30;gradientColor=none;swimlaneLine=1;shadow=1;strokeWidth=0.5;sketch=1;curveFitting=1;jiggle=2;" vertex="1" parent="pFn4R3g04_g3cw62Z65F-29">
          <mxGeometry width="30" height="30" as="geometry">
            <mxRectangle width="30" height="30" as="alternateBounds" />
          </mxGeometry>
        </mxCell>
        <mxCell id="pFn4R3g04_g3cw62Z65F-31" value="emission_source_id,&amp;nbsp;integer" style="shape=partialRectangle;connectable=0;fillColor=none;top=0;left=0;bottom=0;right=0;align=left;spacingLeft=6;overflow=hidden;whiteSpace=wrap;html=1;fontFamily=Comic Sans MS;fontSize=9;strokeColor=#994C00;opacity=30;gradientColor=none;swimlaneLine=1;shadow=1;strokeWidth=0.5;sketch=1;curveFitting=1;jiggle=2;" vertex="1" parent="pFn4R3g04_g3cw62Z65F-29">
          <mxGeometry x="30" width="210" height="30" as="geometry">
            <mxRectangle width="210" height="30" as="alternateBounds" />
          </mxGeometry>
        </mxCell>
        <mxCell id="pFn4R3g04_g3cw62Z65F-32" value="" style="shape=tableRow;horizontal=0;startSize=0;swimlaneHead=0;swimlaneBody=0;fillColor=none;collapsible=0;dropTarget=0;points=[[0,0.5],[1,0.5]];portConstraint=eastwest;top=0;left=0;right=0;bottom=1;fontFamily=Comic Sans MS;fontSize=9;strokeColor=#994C00;opacity=30;gradientColor=none;swimlaneLine=1;shadow=1;strokeWidth=0.5;sketch=1;curveFitting=1;jiggle=2;" vertex="1" parent="pFn4R3g04_g3cw62Z65F-1">
          <mxGeometry y="330" width="240" height="30" as="geometry" />
        </mxCell>
        <mxCell id="pFn4R3g04_g3cw62Z65F-33" value="" style="shape=partialRectangle;connectable=0;fillColor=none;top=0;left=0;bottom=0;right=0;fontStyle=1;overflow=hidden;whiteSpace=wrap;html=1;fontFamily=Comic Sans MS;fontSize=9;strokeColor=#994C00;opacity=30;gradientColor=none;swimlaneLine=1;shadow=1;strokeWidth=0.5;sketch=1;curveFitting=1;jiggle=2;" vertex="1" parent="pFn4R3g04_g3cw62Z65F-32">
          <mxGeometry width="30" height="30" as="geometry">
            <mxRectangle width="30" height="30" as="alternateBounds" />
          </mxGeometry>
        </mxCell>
        <mxCell id="pFn4R3g04_g3cw62Z65F-34" value="scope_id, integer&lt;p&gt;&lt;/p&gt;" style="shape=partialRectangle;connectable=0;fillColor=none;top=0;left=0;bottom=0;right=0;align=left;spacingLeft=6;fontStyle=1;overflow=hidden;whiteSpace=wrap;html=1;fontFamily=Comic Sans MS;fontSize=9;strokeColor=#994C00;opacity=30;gradientColor=none;swimlaneLine=1;shadow=1;strokeWidth=0.5;sketch=1;curveFitting=1;jiggle=2;" vertex="1" parent="pFn4R3g04_g3cw62Z65F-32">
          <mxGeometry x="30" width="210" height="30" as="geometry">
            <mxRectangle width="210" height="30" as="alternateBounds" />
          </mxGeometry>
        </mxCell>
      </root>
    </mxGraphModel>
  </diagram>
</mxfile>
